<svg xmlns="http://www.w3.org/2000/svg" xmlns:xlink="http://www.w3.org/1999/xlink" width="192" height="192" viewBox="0 0 192 192">
  <defs>
    <clipPath id="clip-path">
      <rect id="Rectangle_2262" data-name="Rectangle 2262" width="192" height="192" fill="none"/>
    </clipPath>
  </defs>
  <g id="Group_3432" data-name="Group 3432" transform="translate(-0.025)">
    <g id="Group_3404" data-name="Group 3404" transform="translate(0.025)" clip-path="url(#clip-path)">
      <path id="Path_19964" data-name="Path 19964" d="M96.013,0A96.013,96.013,0,1,1,0,96.013,96.012,96.012,0,0,1,96.013,0" transform="translate(-0.026)" fill="#fff"/>
      <path id="Path_19965" data-name="Path 19965" d="M.008,92.788c.159-.118.082-.29.082-.433.008-1.953.168-3.9.355-5.843A94.6,94.6,0,0,1,5.626,63.367C6.729,60.319,8,57.333,9.405,54.4A97.461,97.461,0,0,1,16.6,41.922c1.369-2.022,2.835-3.975,4.38-5.875s3.158-3.763,4.825-5.573q2.035-2.206,4.216-4.257c2.235-2.108,4.56-4.118,6.991-6a100.489,100.489,0,0,1,9.838-6.75c2.525-1.508,5.1-2.917,7.759-4.176a98.313,98.313,0,0,1,9.16-3.779A94.94,94.94,0,0,1,75.662,2.139,82.548,82.548,0,0,1,84.218.75Q87.1.438,89.983.231A86.633,86.633,0,0,1,98.9.072c2.1.069,4.208.192,6.3.4A95.691,95.691,0,0,1,165.7,30.126a100.484,100.484,0,0,1,6.5,7.677,93.828,93.828,0,0,1,8.02,12.339,98.643,98.643,0,0,1,5.3,11.505A97.027,97.027,0,0,1,189.4,74.374c.482,2.026.854,4.082,1.181,6.141.266,1.679.511,3.363.686,5.054.155,1.479.257,2.966.351,4.449a85.993,85.993,0,0,1,.163,8.768c-.069,1.9-.163,3.787-.355,5.679-.139,1.361-.27,2.717-.433,4.073-.237,1.986-.564,3.959-.948,5.924q-.729,3.726-1.749,7.387-1.152,4.155-2.688,8.188c-.874,2.288-1.814,4.556-2.876,6.762-.891,1.839-1.814,3.661-2.8,5.454q-2.231,4.045-4.842,7.844-1.918,2.8-4.049,5.45c-.927,1.152-1.863,2.3-2.835,3.412-.936,1.07-1.867,2.149-2.9,3.138-.543.523-1.021,1.111-1.561,1.642-1.761,1.724-3.55,3.428-5.426,5.025a101.6,101.6,0,0,1-8.106,6.251c-2.223,1.54-4.515,2.962-6.856,4.306-2.382,1.369-4.813,2.631-7.313,3.767a96.528,96.528,0,0,1-11.3,4.351,93.435,93.435,0,0,1-14.279,3.285c-1.969.286-3.939.547-5.92.719-1.74.155-3.489.237-5.234.327-2.014.1-4.028.1-6.039.045-2.357-.065-4.719-.18-7.068-.474-1.573-.2-3.162-.3-4.723-.556-1.785-.294-3.571-.609-5.344-.981a94.99,94.99,0,0,1-41.494-20.093c-2.022-1.683-3.963-3.452-5.843-5.291A95.983,95.983,0,0,1,10.9,140.4,95.192,95.192,0,0,1,.167,101.2L.008,98.067V92.788m100.744,86.878c22.97-1.622,42.953-11.031,58.527-29.094,15.591-18.079,22.279-39.231,19.958-62.968-2.186-22.4-12.114-41.032-29.253-55.581C132.694,17.346,112.5,10.785,89.893,12.4,66.478,14.078,47.014,24.092,31.9,42c-15.24,18.05-21.674,39.108-19.288,62.6,2.169,21.409,11.5,39.435,27.533,53.759,16.992,15.182,37.086,22.083,60.611,21.307" transform="translate(-0.002 0.075)" fill="#0050f0"/>
      <path id="Path_19966" data-name="Path 19966" d="M70.073,82.8a63.155,63.155,0,0,1-28.616-6.893A61.3,61.3,0,0,1,26.364,65.135,62.808,62.808,0,0,1,8.555,33.3a6.053,6.053,0,1,1,11.771-2.823A51.03,51.03,0,0,0,59.81,69.629a47.14,47.14,0,0,0,8.4,1.013,48.9,48.9,0,0,0,24.473-5.32c14.145-7.277,23.17-18.676,26.97-34.152a8.078,8.078,0,0,1,1.61-3.857,6.062,6.062,0,0,1,10.545,3.117,10.617,10.617,0,0,1-.588,4.421,62.012,62.012,0,0,1-12.4,24.8A62.218,62.218,0,0,1,89.488,79.712a62.1,62.1,0,0,1-14.2,2.864c-1.732.147-3.473.233-5.217.225" transform="translate(25.853 77.847)" fill="#f68b1f"/>
      <path id="Path_19967" data-name="Path 19967" d="M44.375,12.489A15.031,15.031,0,1,1,29.332,27.5,15.042,15.042,0,0,1,44.375,12.489" transform="translate(90.482 38.536)" fill="#0050f0"/>
      <path id="Path_19968" data-name="Path 19968" d="M26.045,12.489A15.025,15.025,0,1,1,11.01,27.243,15.047,15.047,0,0,1,26.045,12.489" transform="translate(33.939 38.536)" fill="#0050f0"/>
    </g>
  </g>
</svg>
