<svg id="Group_2830" data-name="Group 2830" xmlns="http://www.w3.org/2000/svg" width="36.297" height="36.297" viewBox="0 0 36.297 36.297">
  <path id="Path_19826" data-name="Path 19826" d="M36.3,18.148A18.148,18.148,0,1,1,18.148,0,18.149,18.149,0,0,1,36.3,18.148" fill="#0050f0"/>
  <path id="Path_19827" data-name="Path 19827" d="M22.288,17.937l.487-3.174H19.73V12.7a1.587,1.587,0,0,1,1.789-1.715H22.9v-2.7a16.837,16.837,0,0,0-2.458-.215c-2.508,0-4.147,1.521-4.147,4.272v2.418H13.511v3.174H16.3V25.61a11.094,11.094,0,0,0,3.431,0V17.937Z" transform="translate(-0.565 1.21)" fill="#fff"/>
</svg>
