<svg id="Group_2828" data-name="Group 2828" xmlns="http://www.w3.org/2000/svg" width="36.297" height="36.297" viewBox="0 0 36.297 36.297">
  <path id="Path_19828" data-name="Path 19828" d="M155.91,18.148A18.148,18.148,0,1,1,137.761,0,18.149,18.149,0,0,1,155.91,18.148" transform="translate(-119.613)" fill="#0050f0"/>
  <path id="Path_19829" data-name="Path 19829" d="M135.823,8.389a10.97,10.97,0,0,1,6.307,2.023,7.221,7.221,0,0,1,2.926,4.118,6.192,6.192,0,0,1-1.064,5.275,13.362,13.362,0,0,1-2.375,2.462,33.025,33.025,0,0,1-4.736,3.351c-.4.23-.8.445-1.2.665a1.588,1.588,0,0,1-.2.088.447.447,0,0,1-.518-.039c-.156-.152-.11-.338-.061-.521.113-.425.231-.848.334-1.276a1.659,1.659,0,0,0,.027-.408.448.448,0,0,0-.461-.482,10.716,10.716,0,0,1-3.509-.879,8.582,8.582,0,0,1-3.689-2.937,6.362,6.362,0,0,1-1.185-4.33,6.712,6.712,0,0,1,2.055-4.2A9.586,9.586,0,0,1,133.6,8.663c.731-.139,1.48-.186,2.221-.274m-.162,7.184c.071.086.1.115.12.146q.865,1.172,1.73,2.347a.536.536,0,0,0,.6.256.515.515,0,0,0,.344-.551q0-1.789,0-3.578a.491.491,0,1,0-.977.01c0,.653,0,1.306,0,1.959,0,.066-.009.133-.017.237-.06-.068-.094-.1-.122-.141-.558-.756-1.113-1.515-1.676-2.267a.868.868,0,0,0-.333-.3c-.337-.132-.644.119-.647.517-.007,1.193-.006,2.386-.007,3.578a.632.632,0,0,0,.02.166.5.5,0,0,0,.54.381.478.478,0,0,0,.425-.473c.007-.1,0-.21,0-.314Zm4.444-.937h.354c.33,0,.661.011.992,0a.478.478,0,0,0,.491-.463.485.485,0,0,0-.463-.517,3.1,3.1,0,0,0-.386-.009c-.475,0-.951,0-1.426,0-.343.007-.548.18-.55.482q-.011,1.862,0,3.725a.459.459,0,0,0,.495.477c.621,0,1.242.011,1.862-.007a.481.481,0,0,0,.361-.182.734.734,0,0,0,.06-.489.44.44,0,0,0-.473-.3c-.433,0-.867,0-1.308,0v-.862c.453,0,.887,0,1.321,0a.483.483,0,0,0,.463-.285.421.421,0,0,0-.068-.513.713.713,0,0,0-.422-.175c-.431-.023-.863-.008-1.3-.008Zm-9.416,2.721v-.306c0-.951,0-1.9-.01-2.854a.484.484,0,1,0-.965-.029q-.016,1.826-.007,3.651a.485.485,0,0,0,.542.514q.884,0,1.766,0a.622.622,0,0,0,.233-.039.49.49,0,0,0,.3-.526.52.52,0,0,0-.5-.409c-.442-.007-.884,0-1.355,0m3.283-1.372h-.01c0-.6,0-1.191,0-1.787a.48.48,0,1,0-.955,0q-.012,1.787-.009,3.575a.7.7,0,0,0,.1.36.437.437,0,0,0,.528.185.465.465,0,0,0,.342-.472q0-.93,0-1.859" transform="translate(-117.622 0.382)" fill="#fff"/>
</svg>
