<svg id="Group_3407" data-name="Group 3407" xmlns="http://www.w3.org/2000/svg" xmlns:xlink="http://www.w3.org/1999/xlink" width="47" height="47" viewBox="0 0 47 47">
  <defs>
    <clipPath id="clip-path">
      <rect id="Rectangle_2262" data-name="Rectangle 2262" width="47" height="47" fill="none"/>
    </clipPath>
  </defs>
  <g id="Group_3404" data-name="Group 3404" clip-path="url(#clip-path)">
    <path id="Path_19964" data-name="Path 19964" d="M23.5,0A23.5,23.5,0,1,1,0,23.5,23.5,23.5,0,0,1,23.5,0" fill="#fff"/>
    <path id="Path_19965" data-name="Path 19965" d="M.008,22.729c.039-.029.02-.071.02-.106,0-.478.041-.955.087-1.43a23.154,23.154,0,0,1,1.268-5.665c.27-.746.581-1.477.925-2.195a23.854,23.854,0,0,1,1.761-3.054c.335-.495.694-.973,1.072-1.438s.773-.921,1.181-1.364q.5-.54,1.032-1.042C7.9,5.919,8.47,5.427,9.065,4.966a24.6,24.6,0,0,1,2.408-1.652c.618-.369,1.249-.714,1.9-1.022a24.063,24.063,0,0,1,2.242-.925A23.237,23.237,0,0,1,18.525.542,20.2,20.2,0,0,1,20.619.2Q21.324.125,22.03.075A21.2,21.2,0,0,1,24.213.036c.515.017,1.03.047,1.543.1A23.421,23.421,0,0,1,40.562,7.392a24.594,24.594,0,0,1,1.591,1.879,22.964,22.964,0,0,1,1.963,3.02,24.144,24.144,0,0,1,1.3,2.816,23.749,23.749,0,0,1,.95,3.115c.118.5.209,1,.289,1.5.065.411.125.823.168,1.237.038.362.063.726.086,1.089a21.048,21.048,0,0,1,.04,2.146c-.017.464-.04.927-.087,1.39-.034.333-.066.665-.106,1-.058.486-.138.969-.232,1.45q-.178.912-.428,1.808-.282,1.017-.658,2c-.214.56-.444,1.115-.7,1.655-.218.45-.444.9-.686,1.335q-.546.99-1.185,1.92-.469.686-.991,1.334c-.227.282-.456.563-.694.835s-.457.526-.709.768c-.133.128-.25.272-.382.4-.431.422-.869.839-1.328,1.23a24.866,24.866,0,0,1-1.984,1.53c-.544.377-1.1.725-1.678,1.054s-1.178.644-1.79.922A23.627,23.627,0,0,1,30.538,45.9a22.869,22.869,0,0,1-3.5.8c-.482.07-.964.134-1.449.176-.426.038-.854.058-1.281.08-.493.025-.986.024-1.478.011-.577-.016-1.155-.044-1.73-.116-.385-.048-.774-.073-1.156-.136-.437-.072-.874-.149-1.308-.24A23.249,23.249,0,0,1,8.485,41.557c-.495-.412-.97-.845-1.43-1.295a23.493,23.493,0,0,1-4.381-5.88A23.3,23.3,0,0,1,.047,24.789l-.039-.768V22.729M24.666,43.993a20.173,20.173,0,0,0,14.325-7.121A19.814,19.814,0,0,0,43.876,21.46a19.831,19.831,0,0,0-7.16-13.6,19.809,19.809,0,0,0-14.708-4.8A19.81,19.81,0,0,0,7.813,10.3,19.824,19.824,0,0,0,3.092,25.62,19.829,19.829,0,0,0,9.831,38.778a20.342,20.342,0,0,0,14.835,5.215" fill="#e6e6e6"/>
    <path id="Path_19966" data-name="Path 19966" d="M23.485,39.32a15.458,15.458,0,0,1-7-1.687A15,15,0,0,1,12.787,35,15.373,15.373,0,0,1,8.428,27.2a1.481,1.481,0,1,1,2.881-.691A12.49,12.49,0,0,0,20.973,36.1a11.538,11.538,0,0,0,2.056.248,11.969,11.969,0,0,0,5.99-1.3,12.31,12.31,0,0,0,6.6-8.359,1.977,1.977,0,0,1,.394-.944A1.484,1.484,0,0,1,38.6,26.5a2.6,2.6,0,0,1-.144,1.082A15.432,15.432,0,0,1,24.762,39.265c-.424.036-.85.057-1.277.055" fill="#e6e6e6"/>
    <path id="Path_19967" data-name="Path 19967" d="M33.014,12.489a3.679,3.679,0,1,1-3.682,3.675,3.682,3.682,0,0,1,3.682-3.675" fill="#e6e6e6"/>
    <path id="Path_19968" data-name="Path 19968" d="M14.688,12.489a3.678,3.678,0,1,1-3.68,3.611,3.683,3.683,0,0,1,3.68-3.611" fill="#e6e6e6"/>
  </g>
</svg>
